HIERARCHY
ROOT root
{
	OFFSET 0.000000 0.000000 0.000000
	CHANNELS 6 Xposition Yposition Zposition Zrotation Yrotation Xrotation
	JOINT lhip
	{
		OFFSET 0.058581 -0.082280 -0.017664
		CHANNELS 3 Zrotation Yrotation Xrotation
		JOINT lknee
		{
			OFFSET 0.043451 -0.386469 0.008037
			CHANNELS 3 Zrotation Yrotation Xrotation
			JOINT lankle
			{
				OFFSET -0.014790 -0.426874 -0.037428
				CHANNELS 3 Zrotation Yrotation Xrotation
				JOINT ltoe
				{
					OFFSET 0.041054 -0.060286 0.122042
					CHANNELS 3 Zrotation Yrotation Xrotation
					End Site
					{
						OFFSET 0.000000 0.000000 0.000000
					}
				}
			}
		}
	}
	JOINT rhip
	{
		OFFSET -0.060310 -0.090513 -0.013543
		CHANNELS 3 Zrotation Yrotation Xrotation
		JOINT rknee
		{
			OFFSET -0.043257 -0.383688 -0.004843
			CHANNELS 3 Zrotation Yrotation Xrotation
			JOINT rankle
			{
				OFFSET 0.019056 -0.420046 -0.034562
				CHANNELS 3 Zrotation Yrotation Xrotation
				JOINT rtoe
				{
					OFFSET -0.034840 -0.062106 0.130323
					CHANNELS 3 Zrotation Yrotation Xrotation
					End Site
					{
						OFFSET 0.000000 0.000000 0.000000
					}
				}
			}
		}
	}
	JOINT lowerback
	{
		OFFSET 0.004439 0.124404 -0.038385
		CHANNELS 3 Zrotation Yrotation Xrotation
		JOINT upperback
		{
			OFFSET 0.004488 0.137956 0.026820
			CHANNELS 3 Zrotation Yrotation Xrotation
			JOINT chest
			{
				OFFSET -0.002265 0.056032 0.002855
				CHANNELS 3 Zrotation Yrotation Xrotation
				JOINT lowerneck
				{
					OFFSET -0.013390 0.211636 -0.033468
					CHANNELS 3 Zrotation Yrotation Xrotation
					JOINT upperneck
					{
						OFFSET 0.010113 0.088937 0.050410
						CHANNELS 3 Zrotation Yrotation Xrotation
						End Site
						{
							OFFSET 0.000000 0.000000 0.000000
						}
					}
				}
				JOINT lclavicle
				{
					OFFSET 0.071702 0.114000 -0.018898
					CHANNELS 3 Zrotation Yrotation Xrotation
					JOINT lshoulder
					{
						OFFSET 0.122921 0.045205 -0.019046
						CHANNELS 3 Zrotation Yrotation Xrotation
						JOINT lelbow
						{
							OFFSET 0.255332 -0.015649 -0.022946
							CHANNELS 3 Zrotation Yrotation Xrotation
							JOINT lwrist
							{
								OFFSET 0.265709 0.012698 -0.007375
								CHANNELS 3 Zrotation Yrotation Xrotation
								End Site
								{
									OFFSET 0.000000 0.000000 0.000000
								}
							}
						}
					}
				}
				JOINT rclavicle
				{
					OFFSET -0.082954 0.112472 -0.023707
					CHANNELS 3 Zrotation Yrotation Xrotation
					JOINT rshoulder
					{
						OFFSET -0.113228 0.046853 -0.008472
						CHANNELS 3 Zrotation Yrotation Xrotation
						JOINT relbow
						{
							OFFSET -0.260127 -0.014369 -0.031269
							CHANNELS 3 Zrotation Yrotation Xrotation
							JOINT rwrist
							{
								OFFSET -0.269108 0.006794 -0.006027
								CHANNELS 3 Zrotation Yrotation Xrotation
								End Site
								{
									OFFSET 0.000000 0.000000 0.000000
								}
							}
						}
					}
				}
			}
		}
	}
}
MOTION
Frames: 11
Frame Time: 0.033333
0.394489 0.300039 0.731095 99.524460 -0.819790 175.911870 6.218559 -8.580595 -17.365273 -15.606390 -6.216174 42.097011 -5.094116 12.512341 -12.430903 0.000000 -0.000000 0.000000 1.410274 4.339480 -22.182626 10.070520 -5.671973 38.662133 7.589725 -6.517223 8.455387 0.000000 -0.000000 0.000000 -10.819754 9.902692 -6.074430 7.724468 1.897055 -20.977290 20.234828 -4.942074 17.710577 -22.062543 -13.402318 30.368992 16.341763 13.046559 -57.620920 11.109327 -57.083554 6.796806 -34.112659 -21.028495 -9.448331 65.722213 -63.187271 -59.879304 19.146546 -20.589804 -49.624930 -25.928481 28.710812 -18.422271 31.146033 -1.354189 -16.357502 34.056342 82.410706 45.927470 -6.155795 18.154964 -41.349903 
0.395113 0.299862 0.732052 99.141192 -0.780031 175.018494 5.881189 -8.311183 -18.270878 -16.605826 -1.750234 51.353863 -4.336127 11.153528 -12.973449 0.000000 -0.000000 0.000000 0.642722 4.423250 -22.910317 10.891195 -6.661981 40.431381 9.284692 -4.297014 12.323251 0.000000 -0.000000 0.000000 -11.270501 9.096511 -5.618205 8.196476 1.943687 -21.978084 19.780559 -4.668765 17.927793 -21.840240 -12.956798 29.508458 15.951118 12.375482 -58.404580 9.660125 -54.445448 8.735849 -41.525514 -20.419411 -4.026019 56.482028 -66.654203 -49.072886 22.457631 -20.953313 -51.283273 -22.803818 26.869936 -16.129409 35.964836 -3.034971 -15.001319 65.323445 81.714994 79.578135 -8.376209 18.692902 -38.743105 
0.395500 0.299159 0.734056 98.797889 -0.995795 174.704755 5.568858 -8.026632 -19.036421 -16.817038 1.193565 57.790593 -3.903568 9.802601 -13.143521 0.000000 -0.000000 0.000000 0.161940 4.495341 -23.335368 10.701146 -6.772280 38.064018 11.179083 -3.196854 14.983346 0.000000 -0.000000 0.000000 -11.365540 8.133203 -5.106066 8.395510 1.727838 -23.112841 18.996794 -4.134827 17.941280 -22.299003 -12.415055 28.516771 16.086852 12.213103 -59.372332 8.755178 -50.677208 10.374492 -48.428828 -19.123234 1.025186 37.590057 -66.854701 -32.052977 25.639362 -19.381151 -55.038069 -19.907255 24.241240 -13.557815 40.305567 -4.783054 -14.363492 71.539530 79.183139 87.654496 -11.789217 18.723078 -35.171668 
0.395394 0.297364 0.735248 98.635052 -1.603423 174.827499 5.424528 -7.774103 -19.539816 -17.042198 2.049420 60.572058 -4.097020 8.404042 -12.932783 0.000000 -0.000000 0.000000 0.247977 4.736537 -23.231405 9.185327 -6.320641 32.226736 11.243663 -3.633715 14.060679 0.000000 -0.000000 0.000000 -11.015856 7.159134 -4.616134 8.192298 1.224335 -23.717015 18.043560 -3.686799 17.468638 -22.424385 -11.718130 26.192031 16.331206 11.783429 -60.057740 8.157600 -46.445359 11.446513 -54.024974 -16.595942 4.855895 18.750732 -62.676406 -16.552418 28.574964 -18.728995 -57.748150 -18.069871 21.526159 -11.070706 44.334955 -7.046438 -13.793969 69.147314 76.938241 84.470134 -15.879127 18.604342 -35.565487 
0.395526 0.294301 0.734584 98.640422 -2.443187 175.222825 5.362833 -7.263625 -19.470539 -17.008082 0.705921 58.714623 -4.914012 7.320842 -12.503391 0.000000 -0.000000 0.000000 0.905115 4.938594 -22.651846 6.418200 -5.682900 24.007492 9.621730 -5.365863 9.914457 0.000000 -0.000000 0.000000 -10.193548 6.007935 -3.952905 7.796966 0.475687 -23.915148 16.902087 -3.288928 16.915810 -21.934196 -11.279828 21.664701 16.177229 10.735343 -59.874415 7.912115 -41.704954 11.813269 -58.080139 -13.196097 7.415219 5.231206 -54.547772 -3.751600 31.019871 -19.325012 -57.298955 -16.626413 19.098265 -8.393079 47.297125 -9.385002 -13.119866 66.345727 75.276550 81.209429 -20.460531 18.687076 -36.498424 
0.396246 0.289731 0.732734 98.588036 -3.010229 175.626233 5.171596 -6.421135 -18.613987 -15.947263 -2.043952 52.041138 -5.945644 7.608784 -12.097622 0.000000 -0.000000 0.000000 1.794825 4.718433 -22.070906 3.544423 -5.216670 15.569908 7.714010 -7.887896 3.289670 0.000000 -0.000000 0.000000 -9.516767 5.074736 -3.212124 7.233579 -0.263664 -24.149978 16.075228 -3.106220 16.443847 -21.708561 -10.414158 17.626414 16.493398 10.064522 -59.523162 8.222543 -37.548827 11.794034 -60.819668 -9.783977 8.861568 -3.185403 -43.305116 4.934465 29.718397 -20.103049 -54.299734 -15.636330 17.015556 -5.986028 49.066596 -12.323609 -12.412560 62.956038 73.786544 76.513095 -22.207678 19.098688 -38.735593 
0.396457 0.284998 0.730761 98.772918 -2.861184 175.959171 5.581528 -5.474014 -17.188121 -13.615531 -4.690471 41.571727 -6.690475 9.212999 -11.841680 0.000000 -0.000000 0.000000 2.625247 4.639033 -21.974965 2.200595 -4.660637 9.722433 7.536553 -9.427303 -2.632932 0.000000 -0.000000 0.000000 -8.862381 4.479404 -2.693609 6.624194 -0.634898 -24.662227 15.775185 -3.450837 16.767198 -21.022724 -9.143471 14.311063 16.488069 9.578538 -58.953179 9.432363 -34.786785 10.889938 -63.531377 -6.779421 9.567976 -6.584255 -29.610676 8.464476 22.584099 -23.007703 -50.420930 -16.273698 15.072500 -5.095354 50.749874 -15.946365 -11.534501 56.886591 71.499819 66.751282 -17.737111 19.549935 -45.497732 
0.395388 0.280245 0.730293 99.343046 -2.048711 176.258032 6.625146 -4.457620 -16.003658 -10.305178 -6.594721 29.436281 -7.186764 10.699157 -11.897299 0.000000 -0.000000 0.000000 3.147413 5.379357 -22.522866 2.494314 -3.408860 8.600039 9.027649 -8.708028 -4.662579 0.000000 -0.000000 0.000000 -7.629171 3.771642 -2.522500 5.950541 -0.815468 -24.339069 15.335983 -3.971168 16.854709 -19.227000 -6.786942 11.957867 16.098246 9.060810 -58.268412 10.876766 -32.218540 9.172564 -66.423990 -3.645667 9.066567 -4.882528 -14.255476 9.647397 5.623198 -26.895902 -39.509001 -17.518747 13.442396 -4.943270 52.103872 -18.324931 -11.203087 44.859102 67.316969 48.296377 -5.993757 24.522830 -53.939116 
0.393577 0.275954 0.731246 100.119770 -1.388484 176.419814 7.667890 -3.595180 -15.599842 -7.104041 -9.033490 18.057400 -7.405995 11.243799 -12.654227 0.000000 -0.000000 0.000000 3.496985 5.860004 -23.482865 3.666282 -3.428559 12.466480 9.993560 -8.188590 -3.834973 0.000000 -0.000000 0.000000 -5.940768 2.347615 -2.397345 5.490686 -1.185088 -23.346657 14.454643 -4.086529 16.193497 -17.263661 -4.557196 10.408849 15.405224 8.770125 -57.371615 11.625499 -27.995904 8.075300 -67.976883 -0.843447 6.932684 1.600776 -0.320524 10.370281 -19.903842 -23.517320 -22.587234 -18.027058 11.471146 -4.051795 52.777976 -18.215673 -12.140445 27.904391 60.845142 27.958896 11.938306 32.122191 -56.090239 
0.391102 0.272393 0.732252 100.700542 -1.232430 176.288688 8.167448 -2.770598 -16.318107 -5.126485 -12.621620 10.313979 -7.902043 11.485991 -15.467396 0.000000 -0.000000 0.000000 3.607327 5.388893 -23.902809 5.083190 -4.209802 18.603866 10.117052 -8.966720 -2.440690 0.000000 -0.000000 0.000000 -4.313387 0.552271 -2.289061 5.261282 -1.788043 -22.773416 13.184677 -3.615327 15.454592 -15.806461 -4.216399 9.333954 14.926317 8.955048 -56.063383 10.761917 -21.707407 7.636608 -64.677647 1.024360 2.715788 9.387457 9.828026 5.845610 -36.123933 -13.818736 -14.874640 -17.362767 9.239488 -2.719440 51.330578 -16.190337 -13.812342 12.516600 49.554048 9.387850 26.795594 35.254882 -55.174475 
0.388159 0.269693 0.731190 100.694006 -1.174574 175.520297 7.843083 -2.353551 -17.336605 -5.048242 -14.892487 8.482412 -8.069608 11.739696 -17.727766 0.000000 -0.000000 0.000000 3.348821 4.022705 -22.680288 6.498495 -4.245083 24.129394 9.257123 -9.804701 -0.046240 0.000000 -0.000000 0.000000 -2.995271 -0.920142 -2.026683 4.713267 -2.414137 -22.690849 11.692218 -2.737869 14.520821 -14.876360 -3.723783 8.309899 14.776353 9.364717 -55.092752 9.035641 -14.884391 5.743486 -54.800860 1.258923 -5.377861 15.986806 18.634989 -8.591241 -37.602089 -8.699839 -14.103779 -15.487822 7.980452 -1.215261 46.747591 -13.140504 -16.891103 3.197445 33.105392 -3.786585 33.393757 33.324313 -50.181445 
